# xmcd
#
# Track frame offsets:
#	150
#	15455
#	31461
#	46496
#	59884
#	76214
#	92032
#	109496
#	126420
#	141239
#	154681
#	166665
#	179567
#	194008
#	211202
#	227910
#
# Disc length: 3221 seconds
#
# Revision: 1
# Processed by: cddbd v1.4PL0 Copyright (c) Steve Scherf et al.
# Submitted via: EasyCDDAExtractor 6.2.0.3
#
DISCID=e70c9310
DTITLE=Canto Bebo e Choro - Sertanejas apaixonadas
DYEAR=1900
DGENRE=Country
TTITLE0=É O Amor
TTITLE1=Dois Passarinhos
TTITLE2=Você Em Minha Vida
TTITLE3=Alma Transparente
TTITLE4=Separados
TTITLE5=Coração Marcado
TTITLE6=Idas E Voltas
TTITLE7=Sozinho Na Noite
TTITLE8=No Mesmo Lugar
TTITLE9=Amor Rebelde
TTITLE10=Carta Fechada
TTITLE11=Crises De Ciúmes
TTITLE12=Entre Ele E Eu
TTITLE13=Deixa Eu Te Amar Por Favor
TTITLE14=Nem Dormindo Consigo Te Esquecer
TTITLE15=Canção Que Lembra Você
EXTD=
EXTT0=
EXTT1=
EXTT2=
EXTT3=
EXTT4=
EXTT5=
EXTT6=
EXTT7=
EXTT8=
EXTT9=
EXTT10=
EXTT11=
EXTT12=
EXTT13=
EXTT14=
EXTT15=
PLAYORDER=
